<?xml version="1.0" encoding="utf-8"?>
<!-- Generator: Adobe Illustrator 16.0.0, SVG Export Plug-In . SVG Version: 6.00 Build 0)  -->
<!DOCTYPE svg PUBLIC "-//W3C//DTD SVG 1.1//EN" "http://www.w3.org/Graphics/SVG/1.1/DTD/svg11.dtd">
<svg version="1.1" id="Layer_1" xmlns="http://www.w3.org/2000/svg" xmlns:xlink="http://www.w3.org/1999/xlink" x="0px" y="0px"
	 width="48.976px" height="48.976px" viewBox="0 0 48.976 48.976" enable-background="new 0 0 48.976 48.976" xml:space="preserve">
<g>
	<defs>
		<rect id="SVGID_1_" x="0.001" width="48.975" height="48.976"/>
	</defs>
	<clipPath id="SVGID_2_">
		<use xlink:href="#SVGID_1_"  overflow="visible"/>
	</clipPath>
	<path clip-path="url(#SVGID_2_)" d="M31.092,35.769c4.777,0,9.268-1.86,12.646-5.238c3.377-3.378,5.237-7.869,5.237-12.646
		c0-4.777-1.86-9.268-5.237-12.646C40.36,1.861,35.869,0,31.092,0s-9.27,1.86-12.646,5.239c-6.973,6.973-6.973,18.319,0,25.292
		C21.822,33.909,26.313,35.769,31.092,35.769 M31.092,3.001c3.976,0,7.714,1.548,10.525,4.36c2.812,2.812,4.358,6.549,4.358,10.524
		c0,3.975-1.548,7.713-4.358,10.524c-2.813,2.813-6.55,4.359-10.525,4.359c-3.977,0-7.714-1.548-10.525-4.359
		c-5.803-5.803-5.803-15.246,0-21.049C23.378,4.549,27.115,3.001,31.092,3.001"/>
	<path clip-path="url(#SVGID_2_)" d="M1.501,48.976c0.384,0,0.768-0.146,1.061-0.439l18.004-18.006c0.586-0.586,0.586-1.535,0-2.121
		s-1.535-0.586-2.121,0L0.439,46.417c-0.586,0.586-0.586,1.534,0,2.12C0.732,48.83,1.116,48.976,1.501,48.976"/>
</g>
</svg>
