<?xml version="1.0" encoding="utf-8"?>
<!-- Generator: Adobe Illustrator 16.0.0, SVG Export Plug-In . SVG Version: 6.00 Build 0)  -->
<!DOCTYPE svg PUBLIC "-//W3C//DTD SVG 1.1//EN" "http://www.w3.org/Graphics/SVG/1.1/DTD/svg11.dtd">
<svg version="1.1" id="Layer_1" xmlns="http://www.w3.org/2000/svg" xmlns:xlink="http://www.w3.org/1999/xlink" x="0px" y="0px"
	 width="44px" height="29px" viewBox="0 0 44 29" enable-background="new 0 0 44 29" xml:space="preserve">
<g>
	<path fill="#FFFFFF" d="M42.5,0h-41C0.671,0,0,0.671,0,1.5v26C0,28.328,0.671,29,1.5,29h40.997H42.5c0.828,0,1.5-0.672,1.5-1.5V27
		v-5.281V1.5C44,0.671,43.328,0,42.5,0 M41,3v15.089l-4.24-4.233c-0.584-0.584-1.528-0.606-2.115-0.024l-6.237,6.14l-9.293-9.365
		C18.832,10.324,18.45,10,18.053,10h-0.004c-0.398,0-0.781,0.357-1.063,0.643L3,24.941V3H41z"/>
	<path fill="#FFFFFF" d="M8.791,5c1.956,0,3.542,1.586,3.542,3.542s-1.586,3.542-3.542,3.542s-3.542-1.586-3.542-3.542
		S6.835,5,8.791,5"/>
</g>
</svg>
