<?xml version="1.0" encoding="utf-8"?>
<!-- Generator: Adobe Illustrator 16.0.0, SVG Export Plug-In . SVG Version: 6.00 Build 0)  -->
<!DOCTYPE svg PUBLIC "-//W3C//DTD SVG 1.1//EN" "http://www.w3.org/Graphics/SVG/1.1/DTD/svg11.dtd">
<svg version="1.1" id="Layer_1" xmlns="http://www.w3.org/2000/svg" xmlns:xlink="http://www.w3.org/1999/xlink" x="0px" y="0px"
	 width="31.988px" height="31.984px" viewBox="0 0 31.988 31.984" enable-background="new 0 0 31.988 31.984" xml:space="preserve">
<g>
	<path fill="#FFFFFF" d="M31.403,11.791L24.4,18.793c-0.772,0.772-2.026,0.772-2.802,0l-1.401-1.402l7.007-7.003L21.6,4.784
		l-7.002,7.007l-1.403-1.403c-0.774-0.773-0.774-2.028,0-2.802l7.003-7.003c0.776-0.777,2.027-0.777,2.802,0l8.405,8.406
		C32.183,9.763,32.183,11.014,31.403,11.791 M17.395,20.197l-7.003,7.007l-5.607-5.608l7.01-7.003l-1.403-1.403
		c-0.777-0.774-2.028-0.774-2.802,0l-7.007,7.007c-0.777,0.772-0.777,2.023,0,2.798l8.41,8.409c0.774,0.773,2.024,0.773,2.802,0
		l7.002-7.008c0.772-0.772,0.772-2.022,0-2.802L17.395,20.197z M10.392,21.596c0.774,0.778,2.028,0.778,2.802,0l8.405-8.405
		c0.774-0.774,0.774-2.028,0-2.802c-0.772-0.773-2.028-0.773-2.802,0l-8.406,8.406C9.615,19.566,9.615,20.822,10.392,21.596"/>
</g>
</svg>
