<?xml version="1.0" encoding="utf-8"?>
<!-- Generator: Adobe Illustrator 16.0.0, SVG Export Plug-In . SVG Version: 6.00 Build 0)  -->
<!DOCTYPE svg PUBLIC "-//W3C//DTD SVG 1.1//EN" "http://www.w3.org/Graphics/SVG/1.1/DTD/svg11.dtd">
<svg version="1.1" id="Layer_1" xmlns="http://www.w3.org/2000/svg" xmlns:xlink="http://www.w3.org/1999/xlink" x="0px" y="0px"
	 width="40.68px" height="17.041px" viewBox="0 0 40.68 17.041" enable-background="new 0 0 40.68 17.041" xml:space="preserve">
<g>
	<path fill="#FFFFFF" d="M10.704,1.308C9.376,0.436,7.472,0,4.992,0c-0.688,0-1.488,0.032-2.4,0.096C1.68,0.16,0.816,0.272,0,0.432
		v16.392h3.744v-5.568H4.92c2.496,0,4.416-0.443,5.76-1.332c1.344-0.888,2.016-2.332,2.016-4.332
		C12.696,3.608,12.032,2.18,10.704,1.308z M7.848,7.536C7.192,7.888,6.216,8.064,4.92,8.064H3.744v-4.8
		c0.192-0.016,0.42-0.032,0.684-0.048C4.692,3.2,4.96,3.192,5.232,3.192c0.544,0,1.04,0.036,1.488,0.108
		c0.448,0.072,0.828,0.2,1.14,0.384c0.312,0.184,0.552,0.428,0.72,0.732C8.748,4.72,8.832,5.104,8.832,5.568
		C8.832,6.528,8.504,7.184,7.848,7.536z M25.632,1.992C24.8,1.304,23.804,0.8,22.644,0.48S20.192,0,18.768,0
		c-0.672,0-1.476,0.028-2.412,0.084s-1.836,0.164-2.7,0.324v16.2c0.864,0.177,1.744,0.292,2.64,0.349
		c0.896,0.055,1.68,0.084,2.352,0.084c1.472,0,2.8-0.177,3.984-0.529c1.184-0.352,2.188-0.879,3.012-1.584
		c0.824-0.703,1.46-1.592,1.908-2.663c0.447-1.072,0.672-2.329,0.672-3.769c0-1.503-0.225-2.792-0.672-3.864
		C27.104,3.56,26.464,2.68,25.632,1.992z M23.003,12.408c-0.903,0.944-2.292,1.416-4.164,1.416c-0.32,0-0.596-0.004-0.828-0.012
		c-0.232-0.008-0.437-0.02-0.612-0.036V3.264c0.24-0.032,0.496-0.052,0.768-0.06c0.272-0.008,0.536-0.012,0.792-0.012
		c1.872,0,3.241,0.448,4.104,1.344c0.864,0.896,1.296,2.216,1.296,3.96C24.36,10.16,23.908,11.464,23.003,12.408z M40.68,3.335
		V0.192H29.544v16.632h3.744V9.96h6.575V6.816h-6.575v-3.48H40.68z"/>
</g>
</svg>
